<svg xmlns="http://www.w3.org/2000/svg" viewBox="0 0 800 500" font-family="Arial Black, Arial, sans-serif">
  <defs>
    <linearGradient id="bg3" x1="0" y1="1" x2="1" y2="0">
      <stop offset="0" stop-color="#0d0217"/>
      <stop offset="0.5" stop-color="#4a0e3c"/>
      <stop offset="1" stop-color="#C8102E"/>
    </linearGradient>
    <radialGradient id="disco" cx="0.5" cy="0" r="0.9">
      <stop offset="0" stop-color="#d18cff" stop-opacity="0.4"/>
      <stop offset="1" stop-color="#d18cff" stop-opacity="0"/>
    </radialGradient>
  </defs>
  <rect width="800" height="500" fill="url(#bg3)"/>
  <rect width="800" height="500" fill="url(#disco)"/>
  <g opacity="0.85">
    <circle cx="655" cy="165" r="70" fill="#12060b"/>
    <circle cx="655" cy="165" r="68" fill="none" stroke="#ffb7c5" stroke-width="2"/>
    <circle cx="655" cy="165" r="45" fill="none" stroke="#ffb7c5" stroke-width="1.5" opacity="0.6"/>
    <circle cx="655" cy="165" r="22" fill="#C8102E"/>
    <circle cx="655" cy="165" r="6" fill="#ffffff"/>
  </g>
  <g stroke="#ffffff" stroke-width="2" opacity="0.25">
    <line x1="655" y1="60" x2="655" y2="20"/><line x1="740" y1="120" x2="775" y2="100"/>
    <line x1="745" y1="215" x2="785" y2="235"/><line x1="570" y1="115" x2="535" y2="95"/>
  </g>
  <g fill="#ffffff" opacity="0.15">
    <circle cx="90" cy="90" r="2"/><circle cx="180" cy="55" r="3"/><circle cx="300" cy="95" r="2"/>
    <circle cx="120" cy="430" r="3"/><circle cx="260" cy="455" r="2"/><circle cx="720" cy="430" r="3"/>
  </g>
  <text x="52" y="140" fill="#ffb7c5" font-size="28" letter-spacing="6" font-weight="900">MAFANA VIBES 🎶</text>
  <text x="48" y="222" fill="#ffffff" font-size="66" font-weight="900" letter-spacing="-1">SOIRÉE MALAGASY</text>
  <text x="48" y="292" fill="#ffffff" font-size="66" font-weight="900" letter-spacing="-1">PARIS</text>
  <rect x="52" y="330" width="440" height="58" rx="29" fill="#ffffff"/>
  <text x="80" y="369" fill="#C8102E" font-size="30" font-weight="900">DIM 12 JUILLET • 15€</text>
  <text x="52" y="440" fill="#ffb7c5" font-size="26" font-weight="800" letter-spacing="3">📍 PARIS 11ÈME</text>
  <g>
    <rect x="0" y="0" width="266" height="10" fill="#ffffff"/>
    <rect x="266" y="0" width="267" height="10" fill="#C8102E"/>
    <rect x="533" y="0" width="267" height="10" fill="#007A3D"/>
  </g>
  <text x="748" y="480" fill="#ffffff" opacity="0.7" font-size="16" font-weight="800" text-anchor="end" letter-spacing="2">🇲🇬 MALAGASY EVENTS</text>
</svg>
